<svg width="40" height="40" viewBox="0 0 40 40" fill="none" xmlns="http://www.w3.org/2000/svg">
<rect width="40" height="40" rx="20" fill="#F7F7F7"/>
<path d="M27.9658 18.9504L26.8408 17.6337C26.6324 17.3837 26.4574 16.9171 26.4574 16.5837V15.1671C26.4574 14.2837 25.7324 13.5587 24.8491 13.5587H23.4324C23.0991 13.5587 22.6241 13.3837 22.3741 13.1754L21.0574 12.0504C20.4824 11.5587 19.5408 11.5587 18.9658 12.0504L17.6324 13.1754C17.3824 13.3837 16.9158 13.5587 16.5824 13.5587H15.1408C14.2574 13.5587 13.5324 14.2837 13.5324 15.1671V16.5837C13.5324 16.9087 13.3658 17.3754 13.1574 17.6254L12.0324 18.9504C11.5491 19.5337 11.5491 20.4671 12.0324 21.0337L13.1574 22.3587C13.3658 22.6004 13.5324 23.0754 13.5324 23.4004V24.8254C13.5324 25.7087 14.2574 26.4337 15.1408 26.4337H16.5908C16.9158 26.4337 17.3908 26.6087 17.6408 26.8171L18.9574 27.9421C19.5324 28.4337 20.4741 28.4337 21.0491 27.9421L22.3658 26.8171C22.6158 26.6087 23.0824 26.4337 23.4158 26.4337H24.8324C25.7158 26.4337 26.4408 25.7087 26.4408 24.8254V23.4087C26.4408 23.0754 26.6158 22.6087 26.8241 22.3587L27.9491 21.0421C28.4574 20.4754 28.4574 19.5337 27.9658 18.9504ZM19.3741 16.7754C19.3741 16.4337 19.6574 16.1504 19.9991 16.1504C20.3408 16.1504 20.6241 16.4337 20.6241 16.7754V20.8004C20.6241 21.1421 20.3408 21.4254 19.9991 21.4254C19.6574 21.4254 19.3741 21.1421 19.3741 20.8004V16.7754ZM19.9991 24.0587C19.5408 24.0587 19.1658 23.6837 19.1658 23.2254C19.1658 22.7671 19.5324 22.3921 19.9991 22.3921C20.4574 22.3921 20.8324 22.7671 20.8324 23.2254C20.8324 23.6837 20.4658 24.0587 19.9991 24.0587Z" fill="#131313"/>
</svg>
