<svg width="16" height="16" viewBox="0 0 16 16" fill="none" xmlns="http://www.w3.org/2000/svg">
<path fill-rule="evenodd" clip-rule="evenodd" d="M5.50033 4.66768L5.50033 4C5.50033 2.61929 6.61961 1.5 8.00033 1.5C9.38104 1.5 10.5003 2.61929 10.5003 4V4.66667L10.5003 4.66768C12.2899 4.67573 13.2407 4.74813 13.7741 5.39869C14.3742 6.13071 14.1528 7.23752 13.7101 9.45113L13.3101 11.4511C13.0022 12.9904 12.8483 13.76 12.2953 14.2134C11.7424 14.6667 10.9575 14.6667 9.38776 14.6667H6.61286C5.04311 14.6667 4.25823 14.6667 3.70527 14.2134C3.15232 13.76 2.99839 12.9904 2.69054 11.4511L2.29054 9.45113C1.84782 7.23752 1.62645 6.13071 2.22657 5.39869C2.7599 4.74813 3.71074 4.67573 5.50033 4.66768ZM6.50033 4C6.50033 3.17157 7.1719 2.5 8.00033 2.5C8.82875 2.5 9.50033 3.17157 9.50033 4V4.66667H6.50033V4ZM10.0003 7.33333C10.3685 7.33333 10.667 7.03486 10.667 6.66667C10.667 6.29848 10.3685 6 10.0003 6C9.63212 6 9.33364 6.29848 9.33364 6.66667C9.33364 7.03486 9.63212 7.33333 10.0003 7.33333ZM6.66698 6.66667C6.66698 7.03486 6.3685 7.33333 6.00031 7.33333C5.63212 7.33333 5.33364 7.03486 5.33364 6.66667C5.33364 6.29848 5.63212 6 6.00031 6C6.3685 6 6.66698 6.29848 6.66698 6.66667Z" fill="#4B4B4B"/>
</svg>
