<svg width="21" height="20" viewBox="0 0 21 20" fill="none" xmlns="http://www.w3.org/2000/svg">
<path d="M15.1484 3.69326L13.4818 2.81863C12.0187 2.05087 11.2872 1.66699 10.5003 1.66699C9.71343 1.66699 8.98192 2.05087 7.5189 2.81863L7.2508 2.95932L14.6867 7.20839L18.0339 5.53476C17.4954 4.9249 16.6265 4.46894 15.1484 3.69326Z" fill="#E6E6E6"/>
<path d="M18.624 6.63728L15.292 8.30326V10.8337C15.292 11.1788 15.0122 11.4587 14.667 11.4587C14.3218 11.4587 14.042 11.1788 14.042 10.8337V8.92826L11.1253 10.3866V18.2537C11.7236 18.1047 12.4043 17.7474 13.4817 17.182L15.1484 16.3074C16.9415 15.3664 17.838 14.896 18.3358 14.0505C18.8337 13.2051 18.8337 12.1531 18.8337 10.0491V9.95158C18.8337 8.37437 18.8337 7.3883 18.624 6.63728Z" fill="#E6E6E6"/>
<path d="M9.87533 18.2537V10.3866L2.37669 6.63728C2.16699 7.3883 2.16699 8.37437 2.16699 9.95158V10.0491C2.16699 12.1531 2.16699 13.2051 2.66482 14.0505C3.16265 14.896 4.05918 15.3664 5.85222 16.3074L7.5189 17.182C8.59636 17.7474 9.27706 18.1047 9.87533 18.2537Z" fill="#E6E6E6"/>
<path d="M2.96674 5.53476L10.5003 9.30155L13.343 7.88024L5.93746 3.64853L5.85224 3.69326C4.37411 4.46894 3.50524 4.9249 2.96674 5.53476Z" fill="#E6E6E6"/>
</svg>
