<svg width="10" height="10" viewBox="0 0 10 10" fill="none" xmlns="http://www.w3.org/2000/svg">
<g clip-path="url(#clip0_1449_6094)">
<path d="M7.32372 1.84614L6.49039 1.40883C5.75888 1.02495 5.39312 0.833008 4.99967 0.833008C4.60623 0.833008 4.24047 1.02495 3.50896 1.40883L3.37491 1.47917L7.09284 3.60371L8.76647 2.76689C8.49722 2.46196 8.06278 2.23398 7.32372 1.84614Z" fill="#E0B315"/>
<path d="M9.06149 3.31815L7.39551 4.15114V5.41634C7.39551 5.58893 7.2556 5.72884 7.08301 5.72884C6.91042 5.72884 6.77051 5.58893 6.77051 5.41634V4.46364L5.31217 5.19281V9.12635C5.61131 9.05184 5.95166 8.87324 6.49038 8.59053L7.32372 8.15321C8.22025 7.68273 8.66851 7.44749 8.91743 7.02478C9.16634 6.60207 9.16634 6.07606 9.16634 5.02405V4.9753C9.16634 4.1867 9.16634 3.69366 9.06149 3.31815Z" fill="#E0B315"/>
<path d="M4.68717 9.12635V5.19281L0.937857 3.31815C0.833008 3.69366 0.833008 4.1867 0.833008 4.9753V5.02405C0.833008 6.07606 0.833008 6.60207 1.08192 7.02478C1.33084 7.44749 1.7791 7.68273 2.67562 8.1532L3.50896 8.59052C4.04769 8.87323 4.38804 9.05184 4.68717 9.12635Z" fill="#E0B315"/>
<path d="M1.23288 2.76689L4.99967 4.65029L6.42099 3.93963L2.71824 1.82378L2.67563 1.84614C1.93657 2.23398 1.50213 2.46196 1.23288 2.76689Z" fill="#E0B315"/>
</g>
<defs>
<clipPath id="clip0_1449_6094">
<rect width="10" height="10" fill="white"/>
</clipPath>
</defs>
</svg>
