<svg width="101" height="100" viewBox="0 0 101 100" fill="none" xmlns="http://www.w3.org/2000/svg">
<path fill-rule="evenodd" clip-rule="evenodd" d="M92.1673 49.9997C92.1673 73.0115 73.5125 91.6663 50.5006 91.6663C27.4888 91.6663 8.83398 73.0115 8.83398 49.9997C8.83398 26.9878 27.4888 8.33301 50.5006 8.33301C73.5125 8.33301 92.1673 26.9878 92.1673 49.9997ZM67.2937 37.3733C68.5141 38.5937 68.5141 40.5723 67.2937 41.7927L46.4604 62.6261C45.24 63.8464 43.2613 63.8464 42.0409 62.6261L33.7076 54.2927C32.4872 53.0723 32.4872 51.0937 33.7076 49.8733C34.928 48.6529 36.9066 48.6529 38.127 49.8733L44.2506 55.9969L53.5625 46.6851L62.8743 37.3733C64.0947 36.1529 66.0733 36.1529 67.2937 37.3733Z" fill="#97CB66"/>
</svg>
