<svg width="16" height="16" viewBox="0 0 16 16" fill="none" xmlns="http://www.w3.org/2000/svg">
<rect width="16" height="16" rx="8" fill="#131313" fill-opacity="0.2"/>
<path d="M4.86065 4.85991C4.93096 4.78968 5.02627 4.75024 5.12565 4.75024C5.22502 4.75024 5.32033 4.78968 5.39065 4.85991L8.00065 7.46991L10.6106 4.85991C10.6565 4.81054 10.7148 4.77446 10.7794 4.75545C10.844 4.73644 10.9126 4.73522 10.9778 4.75191C11.0431 4.76859 11.1027 4.80257 11.1502 4.85027C11.1978 4.89796 11.2316 4.9576 11.2481 5.02291C11.2649 5.0881 11.2637 5.15658 11.2448 5.22116C11.2259 5.28574 11.1899 5.34404 11.1406 5.38991L8.53065 7.99991L11.1406 10.6099C11.19 10.6557 11.2261 10.714 11.2451 10.7787C11.2641 10.8433 11.2653 10.9118 11.2486 10.9771C11.232 11.0424 11.198 11.1019 11.1503 11.1495C11.1026 11.1971 11.043 11.2309 10.9776 11.2474C10.9125 11.2641 10.844 11.2629 10.7794 11.244C10.7148 11.2251 10.6565 11.1891 10.6106 11.1399L8.00065 8.52991L5.39065 11.1399C5.31952 11.2061 5.22549 11.2422 5.12833 11.2405C5.03117 11.2388 4.93845 11.1995 4.86965 11.1309C4.80102 11.0621 4.76175 10.9694 4.76007 10.8722C4.75839 10.7751 4.79444 10.681 4.86065 10.6099L7.47065 7.99991L4.86065 5.38991C4.79042 5.31959 4.75098 5.22428 4.75098 5.12491C4.75098 5.02553 4.79042 4.93022 4.86065 4.85991Z" fill="black"/>
</svg>
