<svg width="21" height="20" viewBox="0 0 21 20" fill="none" xmlns="http://www.w3.org/2000/svg">
<path d="M8.47036 7.27541L8.89905 8.82713C9.30322 10.2901 9.50531 11.0216 10.0995 11.3543C10.6936 11.687 11.4478 11.491 12.9562 11.099L14.5561 10.6832C16.0645 10.2912 16.8187 10.0952 17.1617 9.51895C17.5048 8.94269 17.3027 8.2112 16.8985 6.74823L16.4698 5.1965C16.0656 3.73352 15.8636 3.00204 15.2694 2.66933C14.6752 2.33662 13.921 2.53262 12.4127 2.92462L10.8128 3.34041C9.30437 3.73241 8.55017 3.92841 8.20714 4.50468C7.8641 5.08095 8.06619 5.81244 8.47036 7.27541Z" fill="#E6E6E6"/>
<path d="M2.39791 4.37245C2.49019 4.03984 2.83464 3.84501 3.16725 3.9373L4.587 4.3312C5.35107 4.54319 5.95575 5.13221 6.16669 5.89574L7.95922 12.3841L8.09112 12.8396C8.61874 13.0365 9.07191 13.4055 9.35953 13.8956L9.61785 13.8159L17.0096 11.8949C17.3437 11.8081 17.6849 12.0085 17.7717 12.3426C17.8586 12.6767 17.6581 13.0179 17.324 13.1047L9.95959 15.0186L9.68568 15.1031C9.68006 16.1623 8.94937 17.1295 7.84364 17.4169C6.51825 17.7613 5.15591 16.9985 4.80077 15.713C4.44563 14.4275 5.23218 13.1062 6.55757 12.7617C6.62325 12.7447 6.68902 12.7303 6.75475 12.7186L4.96183 6.22861C4.8716 5.90202 4.60748 5.6341 4.25281 5.5357L2.83307 5.1418C2.50045 5.04951 2.30563 4.70507 2.39791 4.37245Z" fill="#E6E6E6"/>
</svg>
