<svg width="16" height="16" viewBox="0 0 16 16" fill="none" xmlns="http://www.w3.org/2000/svg">
<g clip-path="url(#clip0_1576_8311)">
<path d="M6.4657 5.3364L6.87353 6.85368C7.25803 8.28418 7.45028 8.99944 8.01552 9.32476C8.58076 9.65008 9.29825 9.45843 10.7332 9.07513L12.2553 8.66858C13.6902 8.28527 14.4077 8.09362 14.7341 7.53015C15.0604 6.96667 14.8682 6.25142 14.4837 4.82093L14.0758 3.30364C13.6913 1.87314 13.4991 1.15789 12.9338 0.832562C12.3686 0.507239 11.6511 0.69889 10.2161 1.08219L8.6941 1.48874C7.25912 1.87205 6.54163 2.0637 6.21529 2.62717C5.88895 3.19065 6.0812 3.9059 6.4657 5.3364Z" fill="#4B4B4B"/>
<path d="M0.688786 2.49788C0.776577 2.17265 1.10426 1.98215 1.42069 2.07239L2.77134 2.45755C3.49823 2.66483 4.07348 3.24078 4.27415 3.98736L5.97944 10.3317L6.10492 10.777C6.60686 10.9696 7.03798 11.3305 7.3116 11.8097L7.55734 11.7317L14.5894 9.85334C14.9072 9.76845 15.2318 9.96444 15.3144 10.2911C15.397 10.6178 15.2063 10.9514 14.8885 11.0363L7.88246 12.9077L7.62188 12.9904C7.61653 14.026 6.9214 14.9718 5.86948 15.2528C4.60859 15.5896 3.31256 14.8437 2.9747 13.5867C2.63685 12.3298 3.38512 11.0378 4.64601 10.701C4.70849 10.6843 4.77106 10.6702 4.83359 10.6588L3.12792 4.31284C3.04209 3.9935 2.79082 3.73153 2.45342 3.63531L1.10276 3.25015C0.786339 3.15991 0.600994 2.82311 0.688786 2.49788Z" fill="#4B4B4B"/>
</g>
<defs>
<clipPath id="clip0_1576_8311">
<rect width="16" height="16" fill="white"/>
</clipPath>
</defs>
</svg>
