<svg width="10" height="10" viewBox="0 0 10 10" fill="none" xmlns="http://www.w3.org/2000/svg">
<g clip-path="url(#clip0_1449_6090)">
<path d="M4.04021 3.3344L4.2951 4.2827C4.53541 5.17676 4.65557 5.62379 5.00885 5.82712C5.36212 6.03045 5.81055 5.91067 6.70742 5.6711L7.65868 5.41701C8.55555 5.17744 9.00398 5.05766 9.20794 4.70549C9.41191 4.35332 9.29175 3.90628 9.05144 3.01223L8.79654 2.06392C8.55623 1.16986 8.43607 0.722824 8.0828 0.519497C7.72952 0.31617 7.28109 0.435952 6.38423 0.675515L5.43296 0.929611C4.5361 1.16917 4.08767 1.28896 3.8837 1.64113C3.67974 1.9933 3.7999 2.44034 4.04021 3.3344Z" fill="#16AD64"/>
<path d="M0.429637 1.56032C0.484506 1.35705 0.689308 1.23799 0.887075 1.29439L1.73123 1.53511C2.18554 1.66467 2.54507 2.02463 2.67049 2.49125L3.73629 6.45647L3.81472 6.7348C4.12844 6.85516 4.39788 7.08068 4.56889 7.38019L4.72249 7.33145L9.11751 6.15748C9.31615 6.10442 9.51902 6.22692 9.57064 6.43109C9.62227 6.63525 9.50309 6.84377 9.30445 6.89683L4.92568 8.06646L4.76282 8.11814C4.75948 8.76541 4.32502 9.35653 3.66757 9.53214C2.87952 9.74264 2.06949 9.27643 1.85834 8.49084C1.64718 7.70524 2.11484 6.89774 2.9029 6.68724C2.94195 6.67681 2.98106 6.66804 3.02014 6.66089L1.9541 2.69467C1.90045 2.49508 1.74341 2.33135 1.53253 2.27122L0.688373 2.03049C0.490607 1.97409 0.374767 1.76359 0.429637 1.56032Z" fill="#16AD64"/>
</g>
<defs>
<clipPath id="clip0_1449_6090">
<rect width="10" height="10" fill="white"/>
</clipPath>
</defs>
</svg>
