<svg width="16" height="16" viewBox="0 0 16 16" fill="none" xmlns="http://www.w3.org/2000/svg">
<path d="M11.0126 11.0012C11.1293 10.9102 11.2351 10.8044 11.4467 10.5928L14.085 7.95449C14.1488 7.89071 14.1196 7.78085 14.0343 7.75128C13.7229 7.64324 13.3178 7.44039 12.9389 7.06145C12.5599 6.6825 12.3571 6.2774 12.249 5.96598C12.2195 5.88076 12.1096 5.85157 12.0458 5.91536L9.40757 8.55362L9.40756 8.55363C9.19594 8.76525 9.09013 8.87106 8.99913 8.98773C8.89178 9.12536 8.79975 9.27427 8.72466 9.43183C8.661 9.5654 8.61368 9.70737 8.51904 9.99129L8.39675 10.3582L8.20229 10.9415L8.01996 11.4885C7.97339 11.6282 8.00976 11.7823 8.1139 11.8864C8.21804 11.9906 8.37209 12.0269 8.51181 11.9804L9.0588 11.798L9.64216 11.6036L10.009 11.4813L10.009 11.4813C10.293 11.3866 10.4349 11.3393 10.5685 11.2757C10.7261 11.2006 10.875 11.1085 11.0126 11.0012Z" fill="#4B4B4B"/>
<path d="M14.911 7.12845C15.4741 6.56535 15.4741 5.6524 14.911 5.08931C14.3479 4.52622 13.435 4.52622 12.8719 5.08931L12.7871 5.17413C12.7052 5.25598 12.6681 5.3703 12.6886 5.48423C12.7014 5.5559 12.7253 5.66068 12.7687 5.78571C12.8554 6.03575 13.0192 6.36398 13.3278 6.67254C13.6363 6.98109 13.9646 7.14491 14.2146 7.23166C14.3396 7.27504 14.4444 7.29888 14.5161 7.31175C14.63 7.3322 14.7443 7.29511 14.8262 7.21327L14.911 7.12845Z" fill="#4B4B4B"/>
<path fill-rule="evenodd" clip-rule="evenodd" d="M2.78105 2.11406C2 2.89511 2 4.15218 2 6.66634V9.33301C2 11.8472 2 13.1042 2.78105 13.8853C3.5621 14.6663 4.81918 14.6663 7.33333 14.6663H8.66667C11.1808 14.6663 12.4379 14.6663 13.219 13.8853C13.9875 13.1168 13.9998 11.8874 14 9.45305L12.1211 11.3319C11.9413 11.5119 11.794 11.6593 11.6276 11.7891C11.4327 11.9411 11.2219 12.0714 10.9987 12.1777C10.8083 12.2685 10.6106 12.3343 10.3692 12.4147L8.82806 12.9284C8.32901 13.0947 7.7788 12.9649 7.40682 12.5929C7.03484 12.2209 6.90496 11.6707 7.07131 11.1716L7.25364 10.6246L7.57038 9.67441L7.58499 9.63055C7.66537 9.38913 7.7312 9.19142 7.82196 9.00096C7.9283 8.77784 8.05863 8.56696 8.21065 8.37206C8.3404 8.2057 8.48781 8.0584 8.66779 7.87855L11.3388 5.2076L12.08 4.46637L12.1648 4.38155C12.6417 3.90462 13.2669 3.66621 13.892 3.66634C13.7911 2.97931 13.5961 2.49119 13.219 2.11406C12.4379 1.33301 11.1808 1.33301 8.66667 1.33301H7.33333C4.81918 1.33301 3.5621 1.33301 2.78105 2.11406ZM4.83333 5.99967C4.83333 5.72353 5.05719 5.49967 5.33333 5.49967H9.66667C9.94281 5.49967 10.1667 5.72353 10.1667 5.99967C10.1667 6.27582 9.94281 6.49967 9.66667 6.49967H5.33333C5.05719 6.49967 4.83333 6.27582 4.83333 5.99967ZM4.83333 8.66634C4.83333 8.3902 5.05719 8.16634 5.33333 8.16634H7C7.27614 8.16634 7.5 8.3902 7.5 8.66634C7.5 8.94248 7.27614 9.16634 7 9.16634H5.33333C5.05719 9.16634 4.83333 8.94248 4.83333 8.66634ZM4.83333 11.333C4.83333 11.0569 5.05719 10.833 5.33333 10.833H6.33333C6.60948 10.833 6.83333 11.0569 6.83333 11.333C6.83333 11.6091 6.60948 11.833 6.33333 11.833H5.33333C5.05719 11.833 4.83333 11.6091 4.83333 11.333Z" fill="#4B4B4B"/>
</svg>
