<svg width="134" height="134" viewBox="0 0 134 134" fill="none" xmlns="http://www.w3.org/2000/svg">
<path d="M67.657 14.5756C42.0673 18.1994 24.6853 27.022 15.9934 44.1453C33.1828 20.4902 85.2206 2.65833 97.4715 35.797C85.782 11.8874 40.4933 24.8301 23.7479 47.608C12.9646 60.5196 10.9906 73.9915 12.9848 87.7142C6.76391 73.6271 3.41959 58.9283 12.9848 41.4901C23.8102 18.8056 47.9837 11.7977 67.657 14.5756Z" fill="#4AA553"/>
<path d="M87.5283 106.449C82.9218 108.854 78.0126 110.769 72.9182 112.1L72.4431 112.234L71.9606 112.344L70.9975 112.562L69.0657 112.986C68.9043 113.019 68.7447 113.06 68.5814 113.089L68.0934 113.168L67.1156 113.325L65.1582 113.64C64.8335 113.701 64.5033 113.728 64.1749 113.759L63.1879 113.854L61.2122 114.043C59.8913 114.118 58.5668 114.149 57.2441 114.204C55.9196 114.175 54.5969 114.135 53.2742 114.091L51.2966 113.917L50.3078 113.829C49.9794 113.796 49.6474 113.781 49.3208 113.724L47.3616 113.42L46.3819 113.268C46.0554 113.215 45.727 113.175 45.406 113.098C44.1181 112.814 42.8211 112.558 41.548 112.225C36.448 110.903 31.5462 108.943 26.9893 106.451C31.8104 108.431 36.7526 110.075 41.8177 111.185C42.1314 111.269 42.4506 111.322 42.7698 111.379L43.7255 111.553L45.6334 111.913C45.949 111.983 46.2737 112.012 46.5929 112.056L47.556 112.181L49.4823 112.432C50.7719 112.549 52.0634 112.64 53.3531 112.747L57.2349 112.829C58.5283 112.785 59.8234 112.765 61.1168 112.703C62.4046 112.584 63.6979 112.49 64.9839 112.353L66.9083 112.091L67.8714 111.959L68.3539 111.893C68.5135 111.869 68.6713 111.835 68.8309 111.805L70.7388 111.439L71.6946 111.263L72.1734 111.175L72.6467 111.062C77.7155 109.949 82.6687 108.341 87.5283 106.449Z" fill="#4AA553"/>
<path d="M127 73.2466C126.912 73.1111 126.828 72.9775 126.739 72.8419C126.795 72.8383 126.84 72.8401 126.895 72.8365C126.895 72.8365 126.839 72.7669 126.738 72.6478C126.618 72.505 126.424 72.2725 126.196 71.9978C123.912 68.4526 121.707 65.1456 119.636 63.2814C119.37 62.9775 119.055 62.69 118.704 62.4208C118.723 62.4043 118.737 62.3896 118.739 62.3805C118.741 62.3805 118.748 62.3805 118.748 62.3805C118.746 62.3787 118.743 62.3768 118.739 62.3768C118.739 62.3622 118.728 62.3548 118.728 62.3548C118.728 62.3548 118.596 62.2963 118.385 62.201C118.093 62.0069 117.769 61.8421 117.415 61.6975C115.376 60.5182 113.228 58.8042 111.284 59.1412C110.84 59.2181 110.458 59.3243 110.106 59.4396C109.504 59.5239 109 59.7399 108.611 60.1172C108.589 60.1318 108.57 60.1446 108.548 60.1574C108.574 60.0329 108.587 59.9066 108.616 59.7821C108.778 59.088 108.978 58.405 109.207 57.7293C109.44 57.0555 109.71 56.3926 110.012 55.7443C110.629 54.4534 111.392 53.2228 112.331 52.1223C113.162 51.1573 114.146 50.3186 115.217 49.6008C115.219 49.6026 115.221 49.6044 115.222 49.6063C115.222 49.6044 115.222 49.6044 115.224 49.6026C115.224 49.6044 115.222 49.6044 115.222 49.6063C117.416 49.3444 119.095 48.6522 120.258 47.5242C121.533 47.2514 122.837 47.0994 124.147 47.0829C122.87 47.0793 121.594 47.2074 120.339 47.4473C121.724 46.0465 122.322 43.9846 121.957 41.1096C121.412 38.004 119.794 34.4607 117.862 30.791C117.862 30.791 116.129 34.3819 114.591 37.6487C113.472 36.832 105.841 32.6295 105.841 33.0214C105.841 33.9901 106.914 42.7119 108.809 45.9824C110.704 49.2528 114.841 49.6063 114.841 49.6063C114.791 49.4378 114.736 49.2803 114.685 49.1137C114.837 49.2803 114.971 49.3993 115.098 49.4982C114.012 50.2032 113.012 51.0291 112.159 51.9868C111.186 53.0873 110.388 54.3252 109.741 55.6253C109.422 56.279 109.137 56.9474 108.89 57.6286C108.835 57.7806 108.8 57.9381 108.748 58.0901C108.594 55.8744 105.877 54.4955 101.021 53.7062C102.601 57.9417 104.318 61.8256 108.106 60.4541C108.104 60.4633 108.103 60.4724 108.101 60.4834C107.965 60.5969 107.899 60.6702 107.899 60.6702C107.899 60.6702 107.958 60.6921 108.051 60.7251C108.031 60.7526 107.996 60.7746 107.978 60.8039C107.849 60.9943 107.84 61.214 107.912 61.4466C107.89 61.5748 107.855 61.7011 107.835 61.8311C107.736 62.5471 107.653 63.2686 107.666 64.0011C107.668 64.7335 107.756 65.4532 107.857 66.1673C107.958 66.8815 108.082 67.5883 108.202 68.2952C108.444 69.707 108.668 71.1152 108.814 72.5306C108.963 73.9461 109.036 75.3671 109.036 76.7863C109.031 77.1415 109.035 77.4968 109.024 77.852L108.98 78.9159C108.935 79.6118 108.835 80.2893 108.651 80.9705C108.304 82.3292 107.782 83.6587 107.2 84.9606C106.613 86.2626 105.958 87.5389 105.266 88.7987C103.88 91.3166 102.353 93.7667 100.761 96.1747C99.1649 98.579 97.4973 100.954 95.7655 103.259L96.736 103.928C98.4531 101.56 100.08 99.1558 101.647 96.7057C103.21 94.2538 104.705 91.7616 106.063 89.1924C106.74 87.907 107.382 86.6032 107.958 85.2664C108.528 83.9297 109.04 82.5618 109.379 81.1335C109.559 80.4266 109.658 79.6795 109.689 78.9452L109.715 77.863C109.721 77.5023 109.711 77.1415 109.71 76.7808C109.686 75.3378 109.585 73.8985 109.411 72.4666C109.238 71.0346 108.987 69.6173 108.719 68.2073C108.589 67.5023 108.451 66.7991 108.339 66.0978C108.229 65.3946 108.13 64.6914 108.117 63.9901C108.092 63.3327 108.154 62.6662 108.231 62.0051C108.268 62.049 108.317 62.093 108.359 62.1369C108.695 63.3126 109.365 63.9754 110.288 64.2519C110.051 65.9861 110.895 67.8172 110.895 67.8172C110.895 67.8172 111.649 69.3243 114.138 70.6995C114.821 71.1206 115.54 71.4905 116.316 71.7469C119.469 72.7925 123.186 73.0855 127 73.2466ZM114.547 37.7421C114.545 37.744 114.545 37.7458 114.544 37.7495L114.547 37.7421ZM112.344 42.6387C112.355 42.6552 112.379 42.6899 112.379 42.6899L112.471 42.4794C112.445 42.5764 112.417 42.6716 112.399 42.7705C112.381 42.7284 112.362 42.6826 112.344 42.6387Z" fill="#4AA553"/>
<path d="M38.4314 52.5843C38.4314 48.3122 38.4295 44.04 38.4332 39.7679C38.435 38.3671 38.6827 38.1235 40.1833 38.1217C45.2356 38.1144 50.286 38.1144 55.3364 38.1217C56.8095 38.1235 57.0389 38.4055 57.0279 40.0737C57.0187 41.643 56.7949 41.8939 55.3273 41.8957C51.6289 41.9012 47.9287 41.9159 44.2303 41.8829C43.4616 41.8756 43.1974 42.0715 43.2158 42.837C43.2672 44.9721 43.2635 47.1091 43.2176 49.2442C43.2011 49.995 43.4396 50.2239 44.2248 50.2129C47.0077 50.1726 49.7925 50.1928 52.5773 50.2001C54.0578 50.2037 54.2119 50.3869 54.2174 52.0404C54.2229 53.7947 54.0706 53.9869 52.5718 53.9924C49.787 54.0016 47.0041 54.0199 44.2193 53.9796C43.4231 53.9668 43.2066 54.2195 43.2195 54.9593C43.2616 57.4002 43.2671 59.8412 43.2176 62.2821C43.2011 63.0787 43.4506 63.3277 44.2871 63.3204C48.0259 63.2838 51.7646 63.3003 55.5034 63.3058C57.0884 63.3076 57.259 63.498 57.2608 65.1644C57.2627 66.8344 57.0554 67.0761 55.5419 67.078C50.4108 67.0835 45.2796 67.0835 40.1485 67.078C38.6809 67.0761 38.4332 66.8253 38.4332 65.4006C38.4295 61.1285 38.4314 56.8564 38.4314 52.5843Z" fill="#333333"/>
<path d="M88.8107 64.1763C86.8991 66.1283 84.7784 67.194 82.2101 67.4266C79.1226 67.7086 76.3745 66.3334 75.4609 63.9803C74.3731 61.1768 75.4279 57.9979 78.0696 56.3242C80.5847 54.7311 83.4612 54.385 86.3836 54.2971C88.4163 54.2348 88.7887 53.7075 87.9815 51.8598C87.5669 50.9113 86.8001 50.3473 85.7617 50.1312C83.3824 49.635 81.1021 50.0067 78.8951 50.9021C78.0806 51.2317 77.2844 51.7426 76.6937 50.5963C76.0645 49.3749 76.3048 48.148 77.378 47.5932C77.8953 47.3259 78.4695 47.1299 79.0419 46.9926C81.5313 46.3938 84.0538 46.1997 86.6111 46.4817C90.5902 46.9212 92.7457 49.3072 92.8228 53.5555C92.8962 57.6335 92.8393 61.7152 92.854 65.7932C92.8558 66.4725 92.7366 66.9853 91.8908 67.1006C90.3315 67.3112 89.5317 67.0622 89.2767 66.1832C89.1097 65.6064 89.0015 65.0094 88.8107 64.1763ZM88.297 58.7798C88.0567 58.3733 88.7722 57.3826 87.8201 57.3552C85.4022 57.2837 82.9457 57.3735 80.8819 58.8384C79.8271 59.5874 79.5042 60.6879 79.8417 61.9001C80.1793 63.1124 81.1461 63.6873 82.3679 63.8503C85.382 64.2568 88.286 61.7994 88.297 58.7798Z" fill="#333333"/>
<path d="M65.4171 65.4145C67.2113 62.3601 68.1726 59.1079 68.6569 55.7221C68.866 54.2572 68.9412 52.7757 69.0788 51.3016C69.0935 51.135 69.0605 50.9263 69.1522 50.8109C69.9997 49.7268 71.2069 50.2799 72.2672 50.2396C73.0579 50.2103 73.1991 50.7908 73.1936 51.4298C73.168 54.1455 72.658 56.7897 71.8086 59.3624C69.886 65.1819 66.8187 70.3879 62.5278 74.9127C62.1517 75.3101 61.7463 75.6928 61.3023 76.0169C60.1576 76.8556 59.1156 76.7256 58.1616 75.6727C57.204 74.6161 57.2627 73.9257 58.4295 73.0797C60.0897 71.8766 61.5793 70.5124 62.9295 68.9926C63.4634 68.3901 63.5386 68.0129 62.9791 67.3207C59.2421 62.7007 57.4902 57.3921 57.2884 51.5855C57.248 50.43 57.4645 50.2487 58.6679 50.1938C61.2564 50.0748 61.3372 50.1425 61.4968 52.6659C61.7628 56.8354 62.6122 60.8622 64.72 64.5721C64.8778 64.8541 64.9768 65.2002 65.4171 65.4145Z" fill="#333333"/>
<path d="M21.8767 82.7145C21.9262 83.9322 21.9739 85.1463 22.2179 86.353C23.1517 90.9712 26.2245 92.9471 31.0456 91.9692C31.8968 91.7971 32.7352 91.5444 33.5607 91.2752C34.3239 91.028 35.0595 90.6288 35.5034 91.7129C35.9786 92.8701 35.7383 93.9377 34.7935 94.4157C33.9753 94.8277 33.0635 94.9613 32.1646 95.1152C30.1962 95.4521 28.2186 95.5766 26.2355 95.2488C22.4344 94.6189 19.8936 92.4929 18.6993 89.0302C17.2904 84.943 17.261 80.7753 18.6057 76.6607C19.8238 72.9342 22.5004 70.724 26.562 70.182C29.0331 69.8524 31.4822 70.0483 33.8726 70.7515C35.1879 71.1379 35.531 71.6817 35.3824 72.9507C35.2191 74.3406 34.7036 74.6574 33.3277 74.1465C32.0582 73.6759 30.7557 73.3517 29.3963 73.2858C25.7126 73.1082 23.4599 74.6793 22.4472 78.078C21.9959 79.596 21.9097 81.1507 21.8767 82.7145Z" fill="#333333"/>
<path d="M74.3254 92.6456C72.7899 94.1984 71.0728 95.1158 68.9833 95.3777C66.182 95.7292 63.7164 94.5463 62.9111 92.3947C61.9901 89.9336 62.9551 87.2454 65.3234 85.8245C67.5304 84.5024 70.0088 84.2387 72.5404 84.224C73.9585 84.2149 74.0154 84.1471 73.7897 82.7847C73.5898 81.5707 72.8596 80.829 71.5443 80.5946C69.5685 80.2412 67.6661 80.536 65.8371 81.296C65.1363 81.5871 64.4594 82.0138 63.9641 81.0012C63.4761 80.0013 63.6669 78.9686 64.5199 78.4833C65.2115 78.0896 65.993 77.934 66.7709 77.7801C68.8531 77.3681 70.9407 77.2326 73.0449 77.6172C75.6665 78.0988 77.2496 79.571 77.5688 82.1072C78.0752 86.1321 77.6954 90.1808 77.7853 94.2185C77.8018 94.9309 77.2955 95.1396 76.6846 95.1304C75.9269 95.1176 75.0134 95.3648 74.718 94.3192C74.5786 93.823 74.4814 93.3139 74.3254 92.6456ZM72.8193 86.7345C70.8252 86.903 69.1998 87.0111 67.7854 87.901C66.7856 88.5309 66.4003 89.4502 66.6296 90.5617C66.8278 91.5121 67.5029 92.0541 68.4715 92.2793C70.6472 92.7811 74.0704 90.9719 73.909 88.2233C73.8484 87.1814 73.7989 86.4635 72.8193 86.7345Z" fill="#333333"/>
<path d="M52.7715 88.1952C51.8635 88.1128 50.9535 88.0396 50.0454 87.9443C49.5813 87.8967 49.4162 88.0121 49.4712 88.5047C49.7189 90.6984 51.1957 92.1194 53.5053 92.3153C55.239 92.4637 56.9157 92.2311 58.5099 91.5499C59.1868 91.2606 59.8216 90.9182 60.3187 91.8081C60.8452 92.7493 60.7113 93.7345 59.9372 94.2783C59.8729 94.3241 59.8051 94.3699 59.7335 94.3955C55.8829 95.7744 52.0671 96.0454 48.4017 93.8993C47.2185 93.2053 46.4498 92.1121 45.9948 90.8559C44.885 87.7978 44.8739 84.7288 46.0737 81.6964C46.8222 79.8066 48.2715 78.5266 50.2638 77.904C52.511 77.2009 54.8042 77.1844 57.068 77.8638C59.5941 78.6219 61.047 80.5446 61.0085 82.9819C60.9718 85.3404 59.5776 86.9482 56.9065 87.6605C55.5563 88.0194 54.1749 88.1568 52.7715 88.1952ZM52.1313 85.3862C53.2889 85.4265 54.4373 85.3935 55.5325 84.976C56.4204 84.6372 56.9652 84.0403 57.0478 83.1064C57.134 82.1285 56.857 81.2935 55.9654 80.724C53.8117 79.3507 50.6197 80.3816 49.7703 82.7237C48.9209 85.0657 49.1154 85.3404 51.6525 85.388C51.8139 85.3899 51.9717 85.388 52.1313 85.3862Z" fill="#333333"/>
<path d="M85.1399 80.0856C86.6882 78.7122 88.2953 77.804 90.2582 77.5293C94.2171 76.9763 96.8111 79.0052 96.8643 82.8268C96.9138 86.4507 96.8441 90.0746 96.8973 93.6967C96.9138 94.7532 96.4717 95.1671 95.4389 95.1469C95.16 95.1415 94.8812 95.1579 94.6042 95.1488C93.1274 95.0975 92.999 94.9712 92.9953 93.53C92.9916 90.4408 93.01 87.3498 92.9861 84.2607C92.977 83.0393 93.0137 81.7172 91.6635 81.0451C90.2215 80.3273 88.7961 80.6807 87.4716 81.4388C86.1801 82.1768 85.5013 83.2334 85.5252 84.7349C85.571 87.7087 85.4958 90.6862 85.56 93.66C85.5839 94.7789 85.1142 95.1909 84.03 95.1469C83.5934 95.1286 83.1568 95.1323 82.7202 95.1122C82.0121 95.0792 81.6342 94.7587 81.636 94.0354C81.6452 88.9631 81.6433 83.8889 81.636 78.8166C81.636 78.194 81.8726 77.7362 82.5459 77.6941C83.3054 77.6483 84.1951 77.4139 84.5712 78.4064C84.7583 78.9045 84.9124 79.4117 85.1399 80.0856Z" fill="#333333"/>
<path d="M42.2931 82.3199C42.2931 86.0537 42.295 89.7856 42.2913 93.5193C42.2895 94.9696 42.1298 95.1179 40.576 95.1527C40.3779 95.1582 40.1779 95.1399 39.9798 95.1509C38.8479 95.2058 38.3856 94.7902 38.3948 93.6109C38.4498 87.0205 38.4205 80.4301 38.4205 73.8398C38.4205 72.8876 38.3929 71.9335 38.4315 70.9832C38.4535 70.4173 38.1361 69.6061 39.002 69.4377C39.9926 69.2454 41.064 69.0806 42.0143 69.608C42.4454 69.846 42.2839 70.3715 42.2839 70.7781C42.2968 74.6235 42.2931 78.4726 42.2931 82.3199Z" fill="#333333"/>
<path d="M40.2549 100.456L43.3828 104.996V100.414C43.3828 100.116 43.4488 99.8921 43.5827 99.7438C43.7167 99.5955 43.8964 99.5204 44.1221 99.5204C44.3551 99.5204 44.5404 99.5955 44.6761 99.7438C44.8119 99.8921 44.8779 100.116 44.8779 100.414V106.472C44.8779 107.147 44.5862 107.486 44.001 107.486C43.8543 107.486 43.724 107.466 43.6066 107.426C43.4892 107.385 43.381 107.321 43.2782 107.233C43.1755 107.145 43.0801 107.043 42.9939 106.926C42.9058 106.808 42.8178 106.688 42.7315 106.565L39.6807 102.079V106.592C39.6807 106.887 39.6092 107.109 39.4661 107.259C39.323 107.409 39.1414 107.484 38.9176 107.484C38.6883 107.484 38.503 107.407 38.3636 107.255C38.2241 107.103 38.1562 106.882 38.1562 106.591V100.648C38.1562 100.396 38.1856 100.198 38.2443 100.055C38.314 99.8976 38.4278 99.7694 38.5892 99.6687C38.7506 99.568 38.9231 99.5186 39.1102 99.5186C39.257 99.5186 39.3817 99.5405 39.4863 99.5863C39.5908 99.6321 39.6826 99.6925 39.7596 99.7694C39.8385 99.8463 39.9192 99.947 39.9999 100.07C40.0825 100.196 40.1669 100.322 40.2549 100.456Z" fill="#4AA553"/>
<path d="M50.3335 106.678C49.9721 106.947 49.6217 107.15 49.2842 107.284C48.9466 107.419 48.5669 107.487 48.1468 107.487C47.7634 107.487 47.4258 107.414 47.136 107.269C46.8461 107.124 46.6223 106.927 46.4645 106.678C46.3068 106.429 46.2297 106.159 46.2297 105.868C46.2297 105.476 46.36 105.141 46.6187 104.865C46.8773 104.588 47.2332 104.403 47.6863 104.308C47.7817 104.288 48.0166 104.24 48.3926 104.167C48.7687 104.094 49.0916 104.026 49.3594 103.966C49.6273 103.905 49.9189 103.83 50.2326 103.742C50.2143 103.363 50.1354 103.087 49.9942 102.909C49.8529 102.731 49.563 102.643 49.1209 102.643C48.7412 102.643 48.455 102.695 48.2642 102.795C48.0734 102.898 47.9083 103.05 47.7707 103.253C47.6331 103.457 47.5377 103.59 47.4809 103.656C47.424 103.722 47.3029 103.753 47.1158 103.753C46.947 103.753 46.8021 103.702 46.681 103.598C46.5581 103.495 46.4976 103.361 46.4976 103.2C46.4976 102.947 46.5911 102.702 46.7764 102.464C46.9635 102.226 47.2534 102.03 47.6478 101.876C48.0422 101.722 48.5339 101.646 49.1209 101.646C49.7777 101.646 50.295 101.721 50.6711 101.869C51.0472 102.017 51.3132 102.253 51.4673 102.576C51.6232 102.898 51.7003 103.325 51.7003 103.858C51.7003 104.194 51.7003 104.48 51.6984 104.715C51.6966 104.949 51.6929 105.211 51.6911 105.498C51.6911 105.767 51.7369 106.049 51.8305 106.342C51.9241 106.635 51.9699 106.824 51.9699 106.906C51.9699 107.053 51.8984 107.187 51.7535 107.309C51.6085 107.43 51.4453 107.491 51.2636 107.491C51.1095 107.491 50.9591 107.421 50.8087 107.284C50.6619 107.139 50.5023 106.939 50.3335 106.678ZM50.2363 104.601C50.018 104.678 49.6988 104.76 49.2805 104.845C48.8623 104.931 48.5724 104.993 48.4128 105.033C48.2514 105.073 48.0991 105.152 47.9523 105.269C47.8056 105.387 47.734 105.55 47.734 105.76C47.734 105.978 47.8203 106.161 47.9909 106.315C48.1633 106.467 48.3871 106.544 48.6641 106.544C48.9595 106.544 49.2328 106.482 49.4823 106.357C49.7318 106.233 49.9153 106.073 50.0327 105.876C50.1684 105.658 50.2345 105.301 50.2345 104.804V104.601H50.2363Z" fill="#4AA553"/>
<path d="M53.0248 101.78H53.1899V100.917C53.1899 100.686 53.1954 100.505 53.2082 100.373C53.221 100.241 53.2559 100.13 53.3146 100.035C53.3733 99.9357 53.4577 99.8569 53.5659 99.7947C53.676 99.7343 53.7971 99.7031 53.9328 99.7031C54.1236 99.7031 54.2942 99.7709 54.4483 99.9082C54.5511 99.9998 54.6153 100.11 54.6428 100.241C54.6703 100.373 54.6831 100.56 54.6831 100.802V101.78H55.2317C55.4426 101.78 55.6041 101.827 55.716 101.924C55.8279 102.021 55.8829 102.144 55.8829 102.294C55.8829 102.486 55.804 102.622 55.6444 102.699C55.4848 102.776 55.2574 102.814 54.962 102.814H54.6831V105.451C54.6831 105.675 54.6905 105.849 54.707 105.969C54.7235 106.09 54.7675 106.189 54.8391 106.264C54.9106 106.339 55.0262 106.378 55.1876 106.378C55.2757 106.378 55.3931 106.363 55.5435 106.334C55.694 106.304 55.8095 106.29 55.8939 106.29C56.015 106.29 56.1232 106.336 56.2205 106.429C56.3177 106.522 56.3654 106.636 56.3654 106.773C56.3654 107.004 56.2333 107.182 55.971 107.304C55.7086 107.427 55.3307 107.487 54.8373 107.487C54.3695 107.487 54.0154 107.412 53.7751 107.262C53.5347 107.112 53.3751 106.903 53.3018 106.638C53.2265 106.372 53.1899 106.015 53.1899 105.572V102.818H52.9917C52.7771 102.818 52.612 102.769 52.4982 102.671C52.3845 102.573 52.3276 102.45 52.3276 102.298C52.3276 102.148 52.3863 102.023 52.5056 101.928C52.6248 101.829 52.7973 101.78 53.0248 101.78Z" fill="#4AA553"/>
<path d="M60.7978 106.676V106.493C60.618 106.711 60.4309 106.892 60.2328 107.039C60.0346 107.185 59.82 107.295 59.587 107.367C59.3541 107.438 59.0862 107.475 58.7872 107.475C58.4258 107.475 58.1011 107.403 57.8149 107.259C57.5287 107.116 57.3067 106.918 57.149 106.665C56.9618 106.361 56.8701 105.922 56.8701 105.352V102.51C56.8701 102.223 56.938 102.009 57.0719 101.868C57.2077 101.725 57.3856 101.655 57.6094 101.655C57.8351 101.655 58.0185 101.727 58.1579 101.871C58.2974 102.014 58.3652 102.228 58.3652 102.512V104.809C58.3652 105.142 58.3946 105.42 58.4533 105.647C58.512 105.872 58.6166 106.05 58.7688 106.178C58.9211 106.306 59.1266 106.371 59.3852 106.371C59.6366 106.371 59.875 106.299 60.097 106.154C60.319 106.012 60.4823 105.823 60.585 105.592C60.6694 105.389 60.7116 104.944 60.7116 104.257V102.512C60.7116 102.228 60.7813 102.014 60.9189 101.871C61.0583 101.729 61.2381 101.655 61.4619 101.655C61.6857 101.655 61.8637 101.727 61.9994 101.868C62.1352 102.009 62.2012 102.225 62.2012 102.51V106.667C62.2012 106.94 62.137 107.145 62.0068 107.282C61.8765 107.42 61.7096 107.488 61.5059 107.488C61.3023 107.488 61.1317 107.416 60.9996 107.275C60.8638 107.132 60.7978 106.933 60.7978 106.676Z" fill="#4AA553"/>
<path d="M65.1752 105.416V106.614C65.1752 106.905 65.1036 107.123 64.9605 107.268C64.8175 107.412 64.6377 107.485 64.4175 107.485C64.2029 107.485 64.0249 107.412 63.8855 107.264C63.7461 107.117 63.6782 106.899 63.6782 106.612V102.618C63.6782 101.974 63.9204 101.651 64.4065 101.651C64.6542 101.651 64.834 101.726 64.944 101.877C65.0541 102.027 65.1147 102.25 65.1257 102.545C65.3054 102.25 65.4889 102.029 65.676 101.877C65.865 101.726 66.1145 101.651 66.43 101.651C66.7455 101.651 67.0482 101.726 67.3454 101.877C67.6408 102.027 67.7894 102.226 67.7894 102.475C67.7894 102.651 67.727 102.796 67.6004 102.909C67.4738 103.023 67.3381 103.08 67.1913 103.08C67.1363 103.08 67.0042 103.047 66.7951 102.983C66.5859 102.919 66.3988 102.886 66.2392 102.886C66.0209 102.886 65.8411 102.941 65.7017 103.05C65.5623 103.16 65.4559 103.325 65.3788 103.541C65.3018 103.759 65.2486 104.017 65.2192 104.316C65.1899 104.62 65.1752 104.986 65.1752 105.416Z" fill="#4AA553"/>
<path d="M72.1058 106.678C71.7444 106.947 71.394 107.15 71.0564 107.284C70.7189 107.419 70.3391 107.487 69.919 107.487C69.5356 107.487 69.1981 107.414 68.9082 107.269C68.6184 107.124 68.3945 106.927 68.2368 106.678C68.079 106.429 68.002 106.159 68.002 105.868C68.002 105.476 68.1322 105.141 68.3909 104.865C68.6495 104.588 69.0054 104.403 69.4586 104.308C69.554 104.288 69.7888 104.24 70.1648 104.167C70.5409 104.094 70.8638 104.026 71.1316 103.966C71.3995 103.905 71.6912 103.83 72.0049 103.742C71.9865 103.363 71.9076 103.087 71.7664 102.909C71.6251 102.731 71.3353 102.643 70.8931 102.643C70.5134 102.643 70.2272 102.695 70.0364 102.795C69.8456 102.898 69.6805 103.05 69.5429 103.253C69.4054 103.457 69.31 103.59 69.2531 103.656C69.1962 103.722 69.0751 103.753 68.888 103.753C68.7192 103.753 68.5743 103.702 68.4532 103.598C68.3303 103.495 68.2698 103.361 68.2698 103.2C68.2698 102.947 68.3633 102.702 68.5486 102.464C68.7358 102.226 69.0256 102.03 69.42 101.876C69.8145 101.722 70.3061 101.646 70.8931 101.646C71.5499 101.646 72.0672 101.721 72.4433 101.869C72.8194 102.017 73.0854 102.253 73.2395 102.576C73.3954 102.898 73.4725 103.325 73.4725 103.858C73.4725 104.194 73.4725 104.48 73.4706 104.715C73.4688 104.949 73.4651 105.211 73.4633 105.498C73.4633 105.767 73.5092 106.049 73.6027 106.342C73.6963 106.635 73.7421 106.824 73.7421 106.906C73.7421 107.053 73.6706 107.187 73.5257 107.309C73.3808 107.43 73.2175 107.491 73.0359 107.491C72.8818 107.491 72.7313 107.421 72.5809 107.284C72.4323 107.139 72.2727 106.939 72.1058 106.678ZM72.0067 104.601C71.7884 104.678 71.4692 104.76 71.0509 104.845C70.6326 104.931 70.3428 104.993 70.1832 105.033C70.0217 105.073 69.8695 105.152 69.7227 105.269C69.576 105.387 69.5044 105.55 69.5044 105.76C69.5044 105.978 69.5906 106.161 69.7612 106.315C69.9337 106.467 70.1575 106.544 70.4345 106.544C70.7299 106.544 71.0032 106.482 71.2527 106.357C71.5022 106.233 71.6857 106.073 71.8031 105.876C71.9388 105.658 72.0049 105.301 72.0049 104.804V104.601H72.0067Z" fill="#4AA553"/>
<path d="M74.9932 106.613V100.393C74.9932 100.106 75.0592 99.8894 75.1931 99.7411C75.327 99.5946 75.5068 99.5195 75.7325 99.5195C75.9581 99.5195 76.1416 99.5928 76.281 99.7374C76.4204 99.8821 76.4901 100.1 76.4901 100.391V106.612C76.4901 106.903 76.4204 107.121 76.2792 107.265C76.1379 107.41 75.9563 107.483 75.7343 107.483C75.516 107.483 75.3362 107.408 75.2005 107.258C75.061 107.11 74.9932 106.894 74.9932 106.613Z" fill="#4AA553"/>
<path d="M97.0239 105.896H92.267V118.763H95.3031V114.401H97.0239C99.871 114.401 102.28 113.065 102.28 110.036C102.278 106.908 99.9334 105.896 97.0239 105.896ZM96.8478 112.089H95.3031V108.208H96.8478C98.4475 108.208 99.3005 108.694 99.3005 110.036C99.3023 111.373 98.5098 112.089 96.8478 112.089Z" fill="#333333"/>
<path d="M112.069 113.618C113.502 112.995 114.459 111.794 114.459 109.908C114.459 106.848 112.118 105.896 109.28 105.896H107.263C108.464 106.72 109.691 107.566 110.311 108.029C111.614 109.001 111.656 111.429 111.405 112.425C111.238 112.273 111.062 112.12 110.899 111.96C110.245 111.358 109.609 110.743 108.981 110.116C108.349 109.494 107.747 108.844 107.114 108.208C107.362 108.578 107.626 108.935 107.888 109.292C108.169 109.638 108.446 109.986 108.743 110.32C109.317 111.003 109.957 111.633 110.607 112.248C110.796 112.425 110.996 112.588 111.188 112.762C108.514 113.802 106.441 113.14 105.155 110.245C104.883 109.534 104.672 108.747 104.514 107.891V118.763H107.554V114.136H109.15L111.709 118.763H115.109L112.069 113.618Z" fill="#333333"/>
<path d="M121.606 105.664C118.411 105.664 116.209 107.973 116.209 112.275C116.209 116.677 118.413 119 121.606 119C124.802 119 127 116.675 127 112.275C127 107.973 124.802 105.664 121.606 105.664ZM121.606 116.486C120.203 116.486 119.321 115.049 119.321 112.273C119.321 109.597 120.205 108.176 121.606 108.176C123.004 108.176 123.889 109.597 123.889 112.273C123.889 115.049 123.006 116.486 121.606 116.486Z" fill="#333333"/>
</svg>
