<svg width="40" height="40" viewBox="0 0 40 40" fill="none" xmlns="http://www.w3.org/2000/svg">
<rect width="40" height="40" rx="20" fill="#F7F7F7"/>
<path d="M24.166 12.0254H15.8327C13.3327 12.0254 11.666 13.6921 11.666 16.1921V21.1921C11.666 23.6921 13.3327 25.3587 15.8327 25.3587V27.1337C15.8327 27.8004 16.5743 28.2004 17.1243 27.8254L20.8327 25.3587H24.166C26.666 25.3587 28.3327 23.6921 28.3327 21.1921V16.1921C28.3327 13.6921 26.666 12.0254 24.166 12.0254ZM19.9993 22.1671C19.6493 22.1671 19.3743 21.8837 19.3743 21.5421C19.3743 21.2004 19.6493 20.9171 19.9993 20.9171C20.3493 20.9171 20.6243 21.2004 20.6243 21.5421C20.6243 21.8837 20.3493 22.1671 19.9993 22.1671ZM21.0493 18.7087C20.7243 18.9254 20.6243 19.0671 20.6243 19.3004V19.4754C20.6243 19.8171 20.341 20.1004 19.9993 20.1004C19.6577 20.1004 19.3743 19.8171 19.3743 19.4754V19.3004C19.3743 18.3337 20.0827 17.8587 20.3493 17.6754C20.6577 17.4671 20.7577 17.3254 20.7577 17.1087C20.7577 16.6921 20.416 16.3504 19.9993 16.3504C19.5827 16.3504 19.241 16.6921 19.241 17.1087C19.241 17.4504 18.9577 17.7337 18.616 17.7337C18.2743 17.7337 17.991 17.4504 17.991 17.1087C17.991 16.0004 18.891 15.1004 19.9993 15.1004C21.1077 15.1004 22.0077 16.0004 22.0077 17.1087C22.0077 18.0587 21.3077 18.5337 21.0493 18.7087Z" fill="#131313"/>
</svg>
