<svg width="44" height="44" viewBox="0 0 44 44" fill="none" xmlns="http://www.w3.org/2000/svg">
<rect width="44" height="44" rx="22" fill="white"/>
<path d="M19.917 23.667C21.2977 23.667 22.417 24.7863 22.417 26.167C22.417 27.5477 21.2977 28.667 19.917 28.667C18.5363 28.667 17.417 27.5477 17.417 26.167C17.417 24.7863 18.5363 23.667 19.917 23.667Z" stroke="#131313" stroke-width="1.5"/>
<path d="M24.083 15.333C22.7023 15.333 21.583 16.4523 21.583 17.833C21.583 19.2137 22.7023 20.333 24.083 20.333C25.4637 20.333 26.583 19.2137 26.583 17.833C26.583 16.4523 25.4637 15.333 24.083 15.333Z" stroke="#131313" stroke-width="1.5"/>
<path d="M24.5 26.1318L30.3333 26.1318" stroke="#131313" stroke-width="1.5" stroke-linecap="round"/>
<path d="M19.5 17.7988L13.6667 17.7988" stroke="#131313" stroke-width="1.5" stroke-linecap="round"/>
<path d="M13.667 26.1318L15.3337 26.1318" stroke="#131313" stroke-width="1.5" stroke-linecap="round"/>
<path d="M30.333 17.7988L28.6663 17.7988" stroke="#131313" stroke-width="1.5" stroke-linecap="round"/>
</svg>
