<svg width="40" height="40" viewBox="0 0 40 40" fill="none" xmlns="http://www.w3.org/2000/svg">
<rect width="40" height="40" rx="20" fill="#F7F7F7"/>
<path d="M16.3758 27.4245C16.3508 27.4245 16.3174 27.4412 16.2924 27.4412C14.6758 26.6412 13.3591 25.3162 12.5508 23.6995C12.5508 23.6745 12.5674 23.6412 12.5674 23.6162C13.5841 23.9162 14.6341 24.1412 15.6758 24.3162C15.8591 25.3662 16.0758 26.4079 16.3758 27.4245Z" fill="#131313"/>
<path d="M27.4492 23.7079C26.6242 25.3662 25.2492 26.7079 23.5742 27.5162C23.8909 26.4579 24.1576 25.3912 24.3326 24.3162C25.3826 24.1412 26.4159 23.9162 27.4326 23.6162C27.4242 23.6495 27.4492 23.6829 27.4492 23.7079Z" fill="#131313"/>
<path d="M27.5159 16.4251C26.4659 16.1084 25.4076 15.8501 24.3326 15.6667C24.1576 14.5917 23.8992 13.5251 23.5742 12.4834C25.2992 13.3084 26.6909 14.7001 27.5159 16.4251Z" fill="#131313"/>
<path d="M16.3741 12.5748C16.0741 13.5915 15.8574 14.6248 15.6824 15.6748C14.6074 15.8415 13.5408 16.1081 12.4824 16.4248C13.2908 14.7498 14.6324 13.3748 16.2908 12.5498C16.3158 12.5498 16.3491 12.5748 16.3741 12.5748Z" fill="#131313"/>
<path d="M22.9085 15.492C20.9751 15.2753 19.0251 15.2753 17.0918 15.492C17.3001 14.3503 17.5668 13.2087 17.9418 12.1087C17.9585 12.042 17.9501 11.992 17.9585 11.9253C18.6168 11.767 19.2918 11.667 20.0001 11.667C20.7001 11.667 21.3835 11.767 22.0335 11.9253C22.0418 11.992 22.0418 12.042 22.0585 12.1087C22.4335 13.217 22.7001 14.3503 22.9085 15.492Z" fill="#131313"/>
<path d="M15.491 22.9085C14.341 22.7001 13.2077 22.4335 12.1077 22.0585C12.041 22.0418 11.991 22.0501 11.9243 22.0418C11.766 21.3835 11.666 20.7085 11.666 20.0001C11.666 19.3001 11.766 18.6168 11.9243 17.9668C11.991 17.9585 12.041 17.9585 12.1077 17.9418C13.216 17.5751 14.341 17.3001 15.491 17.0918C15.2827 19.0251 15.2827 20.9751 15.491 22.9085Z" fill="#131313"/>
<path d="M28.3328 20.0001C28.3328 20.7085 28.2328 21.3835 28.0745 22.0418C28.0078 22.0501 27.9578 22.0418 27.8911 22.0585C26.7828 22.4251 25.6495 22.7001 24.5078 22.9085C24.7245 20.9751 24.7245 19.0251 24.5078 17.0918C25.6495 17.3001 26.7911 17.5668 27.8911 17.9418C27.9578 17.9585 28.0078 17.9668 28.0745 17.9668C28.2328 18.6251 28.3328 19.3001 28.3328 20.0001Z" fill="#131313"/>
<path d="M22.9085 24.5088C22.7001 25.6588 22.4335 26.7921 22.0585 27.8921C22.0418 27.9588 22.0418 28.0088 22.0335 28.0755C21.3835 28.2338 20.7001 28.3338 20.0001 28.3338C19.2918 28.3338 18.6168 28.2338 17.9585 28.0755C17.9501 28.0088 17.9585 27.9588 17.9418 27.8921C17.5751 26.7838 17.3001 25.6588 17.0918 24.5088C18.0585 24.6171 19.0251 24.6921 20.0001 24.6921C20.9751 24.6921 21.9501 24.6171 22.9085 24.5088Z" fill="#131313"/>
<path d="M23.1355 23.1364C21.0512 23.3994 18.9475 23.3994 16.8632 23.1364C16.6003 21.0522 16.6003 18.9485 16.8632 16.8642C18.9475 16.6013 21.0512 16.6013 23.1355 16.8642C23.3984 18.9485 23.3984 21.0522 23.1355 23.1364Z" fill="#131313"/>
</svg>
