<svg width="16" height="16" viewBox="0 0 16 16" fill="none" xmlns="http://www.w3.org/2000/svg">
<path fill-rule="evenodd" clip-rule="evenodd" d="M8.00033 1.33301C5.05481 1.33301 2.66699 4.0014 2.66699 6.99967C2.66699 9.97446 4.36921 13.2079 7.02504 14.4493C7.64415 14.7387 8.3565 14.7387 8.97561 14.4493C11.6314 13.2079 13.3337 9.97446 13.3337 6.99967C13.3337 4.0014 10.9458 1.33301 8.00033 1.33301ZM8.00033 7.99967C8.7367 7.99967 9.33366 7.40272 9.33366 6.66634C9.33366 5.92996 8.7367 5.33301 8.00033 5.33301C7.26395 5.33301 6.66699 5.92996 6.66699 6.66634C6.66699 7.40272 7.26395 7.99967 8.00033 7.99967Z" fill="#4B4B4B"/>
</svg>
