<svg width="18" height="18" viewBox="0 0 18 18" fill="none" xmlns="http://www.w3.org/2000/svg">
<path d="M14.3772 4.97965C14.0547 3.35215 12.8472 2.63965 11.1672 2.63965H4.58223C2.60223 2.63965 1.28223 3.62965 1.28223 5.93965V9.80215C1.28223 11.4671 1.96473 12.4421 3.08973 12.8621C3.25473 12.9221 3.43473 12.9746 3.62223 13.0046C3.92223 13.0721 4.24473 13.1021 4.58223 13.1021H11.1747C13.1547 13.1021 14.4747 12.1121 14.4747 9.80215V5.93965C14.4747 5.58715 14.4447 5.27215 14.3772 4.97965ZM4.14723 8.99965C4.14723 9.30715 3.89223 9.56215 3.58473 9.56215C3.27723 9.56215 3.02223 9.30715 3.02223 8.99965V6.74965C3.02223 6.44215 3.27723 6.18715 3.58473 6.18715C3.89223 6.18715 4.14723 6.44215 4.14723 6.74965V8.99965ZM7.87473 9.85465C6.77973 9.85465 5.89473 8.96965 5.89473 7.87465C5.89473 6.77965 6.77973 5.89465 7.87473 5.89465C8.96973 5.89465 9.85473 6.77965 9.85473 7.87465C9.85473 8.96965 8.96973 9.85465 7.87473 9.85465ZM12.7197 8.99965C12.7197 9.30715 12.4647 9.56215 12.1572 9.56215C11.8497 9.56215 11.5947 9.30715 11.5947 8.99965V6.74965C11.5947 6.44215 11.8497 6.18715 12.1572 6.18715C12.4647 6.18715 12.7197 6.44215 12.7197 6.74965V8.99965Z" fill="#4B4B4B"/>
<path d="M16.7253 8.18972V12.0522C16.7253 14.3622 15.4053 15.3597 13.4178 15.3597H6.83281C6.27031 15.3597 5.76781 15.2772 5.33281 15.1122C4.98031 14.9847 4.67281 14.7972 4.42531 14.5572C4.29031 14.4297 4.39531 14.2272 4.58281 14.2272H11.1678C13.9428 14.2272 15.5928 12.5772 15.5928 9.80972V5.93972C15.5928 5.75972 15.7953 5.64722 15.9228 5.78222C16.4328 6.32222 16.7253 7.10972 16.7253 8.18972Z" fill="#4B4B4B"/>
</svg>
