<svg width="40" height="40" viewBox="0 0 40 40" fill="none" xmlns="http://www.w3.org/2000/svg">
<rect width="40" height="40" rx="20" fill="#F7F7F7"/>
<path d="M27.5 28.333H12.5C12.1583 28.333 11.875 28.0497 11.875 27.708C11.875 27.3663 12.1583 27.083 12.5 27.083H27.5C27.8417 27.083 28.125 27.3663 28.125 27.708C28.125 28.0497 27.8417 28.333 27.5 28.333Z" fill="#131313"/>
<path d="M25.8495 12.9C24.2328 11.2834 22.6495 11.2417 20.9912 12.9L19.9828 13.9084C19.8995 13.9917 19.8662 14.125 19.8995 14.2417C20.5328 16.45 22.2995 18.2167 24.5078 18.85C24.5412 18.8584 24.5745 18.8667 24.6078 18.8667C24.6995 18.8667 24.7828 18.8334 24.8495 18.7667L25.8495 17.7584C26.6745 16.9417 27.0745 16.15 27.0745 15.35C27.0828 14.525 26.6828 13.725 25.8495 12.9Z" fill="#131313"/>
<path d="M23.0089 19.6087C22.7673 19.492 22.5339 19.3753 22.3089 19.242C22.1256 19.1337 21.9506 19.017 21.7756 18.892C21.6339 18.8003 21.4673 18.667 21.3089 18.5337C21.2923 18.5253 21.2339 18.4753 21.1673 18.4087C20.8923 18.1753 20.5839 17.8753 20.3089 17.542C20.2839 17.5253 20.2423 17.467 20.1839 17.392C20.1006 17.292 19.9589 17.1253 19.8339 16.9337C19.7339 16.8087 19.6173 16.6253 19.5089 16.442C19.3756 16.217 19.2589 15.992 19.1423 15.7587C18.9893 15.4309 18.5591 15.3335 18.3033 15.5893L13.6173 20.2753C13.5089 20.3837 13.4089 20.592 13.3839 20.7337L12.9339 23.9253C12.8506 24.492 13.0089 25.0253 13.3589 25.3837C13.6589 25.6753 14.0756 25.8337 14.5256 25.8337C14.6256 25.8337 14.7256 25.8253 14.8256 25.8087L18.0256 25.3587C18.1756 25.3337 18.3839 25.2337 18.4839 25.1253L23.1777 20.4315C23.4284 20.1809 23.3342 19.7496 23.0089 19.6087Z" fill="#131313"/>
</svg>
