<svg width="211" height="164" viewBox="0 0 211 164" fill="none" xmlns="http://www.w3.org/2000/svg">
<path d="M98.9244 164C144.433 164 181.324 127.287 181.324 82C181.324 36.7127 144.433 0 98.9244 0C53.4161 0 16.5244 36.7127 16.5244 82C16.5244 127.287 53.4161 164 98.9244 164Z" fill="url(#paint0_linear_1747_3837)"/>
<g filter="url(#filter0_d_1747_3837)">
<rect x="57.0381" y="23.6133" width="85.5155" height="105.936" rx="10.9867" fill="url(#paint1_linear_1747_3837)"/>
</g>
<rect x="64.5918" y="37.2803" width="34.3333" height="6.64867" rx="3.32433" fill="#72B97A"/>
<rect x="64.5918" y="56.2891" width="68.6667" height="6.64867" rx="3.32433" fill="#C4C4C4"/>
<rect x="64.5918" y="75.2979" width="68.6667" height="6.64867" rx="3.32433" fill="#C4C4C4"/>
<rect x="64.5918" y="94.3066" width="68.6667" height="6.64867" rx="3.32433" fill="#C4C4C4"/>
<rect x="64.5918" y="113.314" width="68.6667" height="6.64867" rx="3.32433" fill="#C4C4C4"/>
<g filter="url(#filter1_d_1747_3837)">
<path d="M193.787 11.9053H152.532C150.609 11.9053 149.051 13.5374 149.051 15.5508V35.8589C149.051 37.8722 150.609 39.5044 152.532 39.5044H193.787C195.709 39.5044 197.268 37.8722 197.268 35.8589V15.5508C197.268 13.5374 195.709 11.9053 193.787 11.9053Z" fill="white"/>
</g>
<path d="M159.35 30.0652C161.626 30.0652 163.47 28.2296 163.47 25.9652C163.47 23.7009 161.626 21.8652 159.35 21.8652C157.075 21.8652 155.23 23.7009 155.23 25.9652C155.23 28.2296 157.075 30.0652 159.35 30.0652Z" fill="#C4C4C4"/>
<rect x="168.964" y="21.8652" width="21.9733" height="8.2" rx="4.1" fill="#C4C4C4"/>
<path fill-rule="evenodd" clip-rule="evenodd" d="M123.034 134.317C131.878 134.317 140.098 131.655 146.928 127.091L174.874 153.639L185.009 141.937L158.042 116.319C163.022 109.344 165.951 100.817 165.951 91.6087C165.951 68.0216 146.736 48.9004 123.034 48.9004C99.3316 48.9004 80.1172 68.0216 80.1172 91.6087C80.1172 115.196 99.3316 134.317 123.034 134.317ZM159.639 91.6095C159.639 111.579 143.372 127.767 123.305 127.767C103.239 127.767 86.9717 111.579 86.9717 91.6095C86.9717 71.6404 103.239 55.4521 123.305 55.4521C143.372 55.4521 159.639 71.6404 159.639 91.6095Z" fill="#C4C4C4"/>
<g filter="url(#filter2_b_1747_3837)">
<path d="M123.301 128.466C143.97 128.466 160.725 111.945 160.725 91.566C160.725 71.1867 143.97 54.666 123.301 54.666C102.633 54.666 85.8779 71.1867 85.8779 91.566C85.8779 111.945 102.633 128.466 123.301 128.466Z" fill="white" fill-opacity="0.3"/>
</g>
<path d="M129.772 91.5667L138.828 82.5892C139.677 81.701 140.141 80.5207 140.124 79.2989C140.106 78.0771 139.608 76.9103 138.734 76.0463C137.861 75.1823 136.681 74.6892 135.446 74.6719C134.211 74.6546 133.017 75.1144 132.119 75.9536L123.043 84.9311L113.986 75.9536C113.55 75.4974 113.027 75.1323 112.446 74.8798C111.865 74.6274 111.238 74.4928 110.604 74.4839C109.97 74.475 109.34 74.592 108.752 74.8281C108.164 75.0642 107.63 75.4144 107.181 75.8582C106.732 76.302 106.378 76.8303 106.14 77.4118C105.901 77.9933 105.783 78.6163 105.791 79.2438C105.8 79.8714 105.937 80.4908 106.192 81.0654C106.447 81.64 106.816 82.1581 107.277 82.5892L116.349 91.5667L107.277 100.544C106.816 100.975 106.447 101.493 106.192 102.068C105.937 102.643 105.8 103.262 105.791 103.89C105.783 104.517 105.901 105.14 106.14 105.722C106.378 106.303 106.732 106.831 107.181 107.275C107.63 107.719 108.164 108.069 108.752 108.305C109.34 108.541 109.97 108.658 110.604 108.65C111.238 108.641 111.865 108.506 112.446 108.254C113.027 108.001 113.55 107.636 113.986 107.18L123.063 98.2023L132.139 107.18C133.046 107.97 134.223 108.388 135.43 108.349C136.637 108.31 137.784 107.818 138.637 106.972C139.49 106.125 139.984 104.99 140.02 103.795C140.055 102.601 139.629 101.438 138.828 100.544L129.772 91.5667Z" fill="#72B97A"/>
<path d="M174.871 153.642L185.006 141.939L186.533 143.39C188.014 144.797 188.901 146.762 188.998 148.854C189.096 150.946 188.396 152.993 187.052 154.544C185.709 156.095 183.832 157.024 181.834 157.126C179.837 157.228 177.883 156.494 176.402 155.087L174.875 153.637L174.871 153.642Z" fill="#C4C4C4"/>
<path fill-rule="evenodd" clip-rule="evenodd" d="M34.594 42.484C34.5811 41.5095 34.4583 40.5267 34.2126 39.5371C33.351 36.0643 29.5072 33.8348 25.416 33.3107C21.3264 32.7865 17.0736 33.9793 15.4346 37.0001C14.497 38.7273 14.3677 40.2159 14.7508 41.4709C15.1323 42.7192 16.0374 43.7541 17.2659 44.5606C20.6911 46.8068 26.6898 47.2655 29.4264 46.3263C30.692 45.8912 31.9285 45.367 33.1328 44.7672C32.4442 48.6936 29.8789 52.4133 26.4553 55.7651C19.0149 63.05 7.4688 68.5792 1.18091 70.6121C0.843079 70.7213 0.655557 71.0943 0.760625 71.4454C0.865693 71.7965 1.22453 71.9931 1.56237 71.8839C7.97472 69.8107 19.7456 64.1639 27.3331 56.7345C31.2529 52.8972 34.0461 48.5777 34.5229 44.0364C43.3842 39.1154 50.6613 30.1874 56.8829 22.674C57.1141 22.3968 57.0834 21.9751 56.8151 21.7348C56.5467 21.4963 56.1426 21.5265 55.9114 21.8054C49.9436 29.0113 43.0172 37.5832 34.594 42.484ZM33.3058 43.198C33.3543 42.1026 33.2508 40.9904 32.9711 39.8681C32.226 36.8624 28.8008 35.0849 25.2592 34.6312C23.0883 34.354 20.8561 34.5825 19.1055 35.3957C18.0047 35.9064 17.0978 36.6473 16.5515 37.6554C15.8338 38.9776 15.6786 40.1083 15.9728 41.0677C16.267 42.0337 16.9977 42.8099 17.9497 43.4332C21.0711 45.4813 26.5329 45.9164 29.0238 45.0613C30.4932 44.5572 31.9189 43.9289 33.3058 43.198Z" fill="#72B97A"/>
<ellipse cx="191.625" cy="105.916" rx="4.12" ry="4.1" fill="#C4C4C4"/>
<path fill-rule="evenodd" clip-rule="evenodd" d="M36.0158 134.203C36.751 133.929 37.5247 133.564 38.1214 133.036C38.83 132.409 39.1182 131.601 39.3118 130.751C39.5602 129.659 39.6595 128.496 39.9608 127.402C40.0724 126.995 40.2871 126.842 40.3792 126.774C40.612 126.601 40.8474 126.555 41.0688 126.573C41.3312 126.593 41.6917 126.697 41.9287 127.157C41.9625 127.223 42.0065 127.324 42.036 127.461C42.0576 127.562 42.0715 127.878 42.0943 128.008C42.1514 128.328 42.1991 128.649 42.2439 128.971C42.3931 130.043 42.4789 130.954 42.9501 131.939C43.5894 133.276 44.23 134.095 45.0988 134.457C45.9389 134.808 46.9433 134.742 48.2266 134.467C48.3487 134.436 48.4696 134.409 48.5892 134.388C49.155 134.284 49.6959 134.673 49.807 135.263C49.9181 135.853 49.5585 136.428 48.9978 136.558C48.8807 136.585 48.7654 136.611 48.6513 136.634C46.9171 137.084 44.9095 138.688 43.7428 140.093C43.3832 140.527 42.8567 141.738 42.3196 142.511C41.9232 143.081 41.4778 143.456 41.1039 143.589C40.8533 143.679 40.642 143.665 40.4675 143.62C40.2139 143.554 40.0035 143.41 39.8421 143.182C39.7542 143.056 39.6726 142.889 39.6338 142.674C39.6152 142.571 39.6131 142.309 39.6135 142.191C39.504 141.796 39.3701 141.411 39.2725 141.014C39.0396 140.064 38.5828 139.463 38.0403 138.669C37.5328 137.926 36.9877 137.459 36.1886 137.087C36.0847 137.06 35.2459 136.845 34.9497 136.722C34.5169 136.541 34.3107 136.238 34.2359 136.074C34.1087 135.797 34.0956 135.555 34.121 135.353C34.1586 135.055 34.2862 134.801 34.5127 134.595C34.653 134.467 34.8626 134.343 35.1432 134.282C35.36 134.235 35.935 134.207 36.0158 134.203ZM40.9365 132.656C40.9754 132.747 41.0168 132.838 41.0608 132.93C41.9972 134.889 43.0443 135.982 44.317 136.513L44.3597 136.53C43.5083 137.192 42.7375 137.932 42.1484 138.641C41.9059 138.934 41.5847 139.54 41.2378 140.162C40.9226 139.089 40.4071 138.331 39.7588 137.382C39.2636 136.657 38.7447 136.112 38.107 135.668C38.6019 135.402 39.0739 135.09 39.485 134.726C40.1696 134.12 40.6221 133.418 40.9365 132.656Z" fill="#C4C4C4"/>
<defs>
<filter id="filter0_d_1747_3837" x="36.4381" y="16.7466" width="126.716" height="147.137" filterUnits="userSpaceOnUse" color-interpolation-filters="sRGB">
<feFlood flood-opacity="0" result="BackgroundImageFix"/>
<feColorMatrix in="SourceAlpha" type="matrix" values="0 0 0 0 0 0 0 0 0 0 0 0 0 0 0 0 0 0 127 0" result="hardAlpha"/>
<feOffset dy="13.7333"/>
<feGaussianBlur stdDeviation="10.3"/>
<feComposite in2="hardAlpha" operator="out"/>
<feColorMatrix type="matrix" values="0 0 0 0 0.570833 0 0 0 0 0.570833 0 0 0 0 0.570833 0 0 0 0.19 0"/>
<feBlend mode="normal" in2="BackgroundImageFix" result="effect1_dropShadow_1747_3837"/>
<feBlend mode="normal" in="SourceGraphic" in2="effect1_dropShadow_1747_3837" result="shape"/>
</filter>
<filter id="filter1_d_1747_3837" x="144.244" y="5.72527" width="66.0701" height="45.452" filterUnits="userSpaceOnUse" color-interpolation-filters="sRGB">
<feFlood flood-opacity="0" result="BackgroundImageFix"/>
<feColorMatrix in="SourceAlpha" type="matrix" values="0 0 0 0 0 0 0 0 0 0 0 0 0 0 0 0 0 0 127 0" result="hardAlpha"/>
<feOffset dx="4.12" dy="2.74667"/>
<feGaussianBlur stdDeviation="4.46333"/>
<feComposite in2="hardAlpha" operator="out"/>
<feColorMatrix type="matrix" values="0 0 0 0 0.104618 0 0 0 0 0.465612 0 0 0 0 0.545833 0 0 0 0.09 0"/>
<feBlend mode="normal" in2="BackgroundImageFix" result="effect1_dropShadow_1747_3837"/>
<feBlend mode="normal" in="SourceGraphic" in2="effect1_dropShadow_1747_3837" result="shape"/>
</filter>
<filter id="filter2_b_1747_3837" x="80.3846" y="49.1727" width="85.8333" height="84.7865" filterUnits="userSpaceOnUse" color-interpolation-filters="sRGB">
<feFlood flood-opacity="0" result="BackgroundImageFix"/>
<feGaussianBlur in="BackgroundImageFix" stdDeviation="2.74667"/>
<feComposite in2="SourceAlpha" operator="in" result="effect1_backgroundBlur_1747_3837"/>
<feBlend mode="normal" in="SourceGraphic" in2="effect1_backgroundBlur_1747_3837" result="shape"/>
</filter>
<linearGradient id="paint0_linear_1747_3837" x1="98.2892" y1="-26.7012" x2="99.9609" y2="261.27" gradientUnits="userSpaceOnUse">
<stop stop-color="#F2F2F2"/>
<stop offset="1" stop-color="#EFEFEF"/>
</linearGradient>
<linearGradient id="paint1_linear_1747_3837" x1="99.7958" y1="23.6133" x2="99.7958" y2="129.55" gradientUnits="userSpaceOnUse">
<stop stop-color="white"/>
<stop offset="0.71875" stop-color="#FAFAFA"/>
</linearGradient>
</defs>
</svg>
