<svg width="42" height="42" viewBox="0 0 42 42" fill="none" xmlns="http://www.w3.org/2000/svg">
<rect x="0.5" y="0.5" width="41" height="41" rx="20.5" stroke="#E6E6E6"/>
<path d="M26.8338 19.0871V18.5003C26.8338 15.2787 24.2221 12.667 21.0005 12.667C17.7788 12.667 15.1671 15.2787 15.1671 18.5003V19.0871C15.1671 19.7912 14.9587 20.4796 14.5681 21.0655L13.6109 22.5013C12.7366 23.8127 13.4041 25.5953 14.9247 26.01C18.9026 27.0948 23.0984 27.0948 27.0762 26.01C28.5968 25.5953 29.2643 23.8127 28.39 22.5013L27.4328 21.0655C27.0422 20.4796 26.8338 19.7912 26.8338 19.0871Z" stroke="#E6E6E6" stroke-width="1.5"/>
<path d="M17.25 26.833C17.7959 28.2895 19.2687 29.333 21 29.333C22.7313 29.333 24.2041 28.2895 24.75 26.833" stroke="#E6E6E6" stroke-width="1.5" stroke-linecap="round"/>
<ellipse cx="27.6663" cy="14.3333" rx="3.33333" ry="3.33333" fill="#72B97A"/>
</svg>
