<svg width="22" height="22" viewBox="0 0 22 22" fill="none" xmlns="http://www.w3.org/2000/svg">
<path d="M9.20145 4.87348L9.79638 5.9395C10.3333 6.90152 10.1177 8.16354 9.27215 9.00914C9.27214 9.00914 9.27214 9.00914 9.27214 9.00914C9.27203 9.00926 8.24656 10.0349 10.1061 11.8945C11.965 13.7534 12.9907 12.7293 12.9915 12.7285C12.9915 12.7285 12.9915 12.7285 12.9915 12.7285C13.8371 11.8829 15.0991 11.6674 16.0612 12.2043L17.1272 12.7992C18.5798 13.6099 18.7514 15.6471 17.4745 16.924C16.7073 17.6913 15.7674 18.2883 14.7283 18.3277C12.9792 18.394 10.0087 17.9513 7.02905 14.9716C4.04936 11.9919 3.60669 9.02145 3.673 7.27232C3.71239 6.23329 4.30939 5.29337 5.07665 4.52612C6.35352 3.24925 8.39073 3.42081 9.20145 4.87348Z" fill="white"/>
</svg>
