<svg width="20" height="20" viewBox="0 0 20 20" fill="none" xmlns="http://www.w3.org/2000/svg">
<path d="M16.2493 6.66667C17.3999 6.66667 18.3327 5.73393 18.3327 4.58333C18.3327 3.43274 17.3999 2.5 16.2493 2.5C15.0988 2.5 14.166 3.43274 14.166 4.58333C14.166 5.73393 15.0988 6.66667 16.2493 6.66667Z" fill="#131313"/>
<path d="M16.2493 6.66667C17.3999 6.66667 18.3327 5.73393 18.3327 4.58333C18.3327 3.43274 17.3999 2.5 16.2493 2.5C15.0988 2.5 14.166 3.43274 14.166 4.58333C14.166 5.73393 15.0988 6.66667 16.2493 6.66667Z" fill="#131313"/>
<path d="M17.266 7.75866C16.6827 7.94199 16.041 7.97533 15.3744 7.80866C14.2577 7.51699 13.3493 6.62533 13.041 5.50866C12.891 4.96699 12.8827 4.43366 12.9743 3.95033C13.0827 3.41699 12.7077 2.91699 12.1743 2.91699H5.83268C3.33268 2.91699 1.66602 4.16699 1.66602 7.08366V12.917C1.66602 15.8337 3.33268 17.0837 5.83268 17.0837H14.166C16.666 17.0837 18.3327 15.8337 18.3327 12.917V8.55033C18.3327 8.00033 17.7993 7.58366 17.266 7.75866ZM12.9327 9.29199L11.9493 10.0753C11.3993 10.517 10.6993 10.7337 9.99935 10.7337C9.29935 10.7337 8.59102 10.517 8.04935 10.0753L5.44102 7.99199C5.17435 7.77533 5.13268 7.37533 5.34102 7.10866C5.55768 6.84199 5.94935 6.79199 6.21602 7.00866L8.82435 9.09199C9.45768 9.60033 10.5327 9.60033 11.166 9.09199L12.1493 8.30866C12.416 8.09199 12.816 8.13366 13.0243 8.40866C13.241 8.67533 13.1994 9.07533 12.9327 9.29199Z" fill="#131313"/>
</svg>
