<svg width="40" height="40" viewBox="0 0 40 40" fill="none" xmlns="http://www.w3.org/2000/svg">
<rect width="40" height="40" rx="20" fill="#F7F7F7"/>
<path d="M19.9507 11.8419L17.9423 16.5169H15.934C15.6007 16.5169 15.2757 16.5419 14.959 16.6085L15.7923 14.6085L15.8257 14.5335L15.8757 14.4002C15.9007 14.3419 15.9173 14.2919 15.9423 14.2502C16.909 12.0085 17.9923 11.3085 19.9507 11.8419Z" fill="#131313"/>
<path d="M25.6079 16.7413L25.5913 16.7329C25.0913 16.5913 24.5829 16.5163 24.0663 16.5163H18.8496L20.7246 12.1579L20.7496 12.0996C20.8663 12.1413 20.9913 12.1996 21.1163 12.2413L22.9579 13.0163C23.9829 13.4413 24.6996 13.8829 25.1413 14.4163C25.2163 14.5163 25.2829 14.6079 25.3496 14.7163C25.4246 14.8329 25.4829 14.9496 25.5163 15.0746C25.5496 15.1496 25.5746 15.2163 25.5913 15.2913C25.7163 15.7163 25.7246 16.1996 25.6079 16.7413Z" fill="#131313"/>
<path d="M25.2422 17.9333C24.8672 17.8249 24.4755 17.7666 24.0672 17.7666H15.9339C15.3672 17.7666 14.8339 17.8749 14.3339 18.0916C12.8839 18.7166 11.8672 20.1583 11.8672 21.8333V23.4583C11.8672 23.6583 11.8839 23.8499 11.9089 24.0499C12.0922 26.6999 13.5089 28.1166 16.1589 28.2916C16.3505 28.3166 16.5422 28.3333 16.7505 28.3333H23.2505C26.3339 28.3333 27.9589 26.8666 28.1172 23.9499C28.1255 23.7916 28.1339 23.6249 28.1339 23.4583V21.8333C28.1339 19.9916 26.9089 18.4416 25.2422 17.9333ZM22.0839 23.9583H17.9172C17.5755 23.9583 17.2922 23.6749 17.2922 23.3333C17.2922 22.9916 17.5755 22.7083 17.9172 22.7083H22.0839C22.4255 22.7083 22.7089 22.9916 22.7089 23.3333C22.7089 23.6749 22.4255 23.9583 22.0839 23.9583Z" fill="#131313"/>
</svg>
